# xmcd
#
# Track frame offsets: 
#        175
#        67450
#        98253
#        137542
#        192884
#        229995
#
# Disc length: 3868 seconds
#
# Revision: 2
# Processed by: cddbd v1.5.2PL0 Copyright (c) Steve Scherf et al.
# Submitted via: ExactAudioCopy v1.0b1
#
DISCID=4e0f1a06
DTITLE=Grant Green - Idle Moments
DYEAR=1964
DGENRE=Jazz
TTITLE0=Idle Moments
TTITLE1=Jean De Fleur
TTITLE2=Django
TTITLE3=Nomad
TTITLE4=Jean De Fleur (Alternate Take)
TTITLE5=Django (Alternate Take)
EXTD=YEAR: 1964
EXTT0=
EXTT1=
EXTT2=
EXTT3=
EXTT4=
EXTT5=
PLAYORDER=
